<?xml version="1.0" encoding="utf-8"?>
<!-- Generator: Adobe Illustrator 27.8.0, SVG Export Plug-In . SVG Version: 6.00 Build 0)  -->
<svg version="1.1" id="Ebene_1" xmlns="http://www.w3.org/2000/svg" xmlns:xlink="http://www.w3.org/1999/xlink" x="0px" y="0px"
	 viewBox="0 0 1000 1000" style="enable-background:new 0 0 1000 1000;" xml:space="preserve">
<style type="text/css">
	.st0{fill:url(#SVGID_1_);}
</style>
<linearGradient id="SVGID_1_" gradientUnits="userSpaceOnUse" x1="103.312" y1="26.9867" x2="897.1703" y2="973.0703">
	<stop  offset="0" style="stop-color:#FFFF00"/>
	<stop  offset="1" style="stop-color:#FFC900"/>
</linearGradient>
<path class="st0" d="M797.41,996.05H203.08c-109.82,0-198.85-89.03-198.85-198.85V202.86C4.22,93.04,93.25,4.01,203.08,4.01h594.33
	c109.82,0,198.85,89.03,198.85,198.85v594.33C996.26,907.02,907.23,996.05,797.41,996.05z"/>
<path d="M751.58,500.03c0-35.84,26.34-65.45,60.69-70.77l-0.01-94.71c0-12.14-9.92-22.07-22.07-22.07l-579.91,0
	c-12.15,0-22.08,9.93-22.06,22.07l-0.01,94.71c34.36,5.33,60.69,34.93,60.68,70.78c0,35.85-26.32,65.46-60.68,70.78l0,94.7
	c0,12.15,9.93,22.06,22.07,22.07H790.2c12.15,0,22.06-9.92,22.07-22.05l0-94.71C777.91,565.49,751.59,535.89,751.58,500.03z
	 M608.99,330.38h22.58v43.33h-22.58V330.38z M608.98,400.19c0-0.04,0.01-0.08,0.01-0.11v-11.18h22.58v43.33h-22.58v-11.11
	c0-0.06-0.01-0.13-0.01-0.19L608.98,400.19z M631.57,637.65v20.73v11.3h-22.58v-11.22c0-0.03,0-0.05,0-0.08l0-20.73v-11.3h22.58
	V637.65z M631.56,600.05v11.14H620.4c-0.04,0-0.07,0.01-0.11,0.01c-0.04,0-0.07-0.01-0.11-0.01h-11.19v-43.33h11.19
	c0.04,0,0.08-0.01,0.11-0.01s0.07,0.01,0.11,0.01h11.17v11.22c0,0.03,0,0.05,0,0.08l0,20.74
	C631.57,599.94,631.56,599.99,631.56,600.05z M631.61,551.36h-22.58v-43.33h22.58V551.36z M631.61,492.03h-22.58V448.7h22.58V492.03
	z"/>
</svg>
